<svg width="27" height="28" viewBox="0 0 27 28" fill="none" xmlns="http://www.w3.org/2000/svg">
<path d="M16.2848 27.8736C18.1152 27.8736 19.599 26.3898 19.599 24.5595C19.599 22.7292 18.1152 21.2454 16.2848 21.2454C14.4545 21.2454 12.9707 22.7292 12.9707 24.5595C12.9707 26.3898 14.4545 27.8736 16.2848 27.8736Z" fill="#6FCACF"/>
<path d="M10.5778 6.62818C12.4082 6.62818 13.892 5.14448 13.892 3.31414C13.892 1.4838 12.4082 0 10.5778 0C8.74748 0 7.26367 1.4838 7.26367 3.31414C7.26367 5.14448 8.74748 6.62818 10.5778 6.62818Z" fill="#6FCACF"/>
<path d="M19.7088 10.6665C21.7452 10.6665 23.396 9.01559 23.396 6.97918C23.396 4.94278 21.7452 3.29199 19.7088 3.29199C17.6724 3.29199 16.0215 4.94278 16.0215 6.97918C16.0215 9.01559 17.6724 10.6665 19.7088 10.6665Z" fill="#6FCACF"/>
<path d="M22.3855 20.5429C24.4219 20.5429 26.0727 18.8921 26.0727 16.8556C26.0727 14.8192 24.4219 13.1685 22.3855 13.1685C20.3491 13.1685 18.6982 14.8192 18.6982 16.8556C18.6982 18.8921 20.3491 20.5429 22.3855 20.5429Z" fill="#6FCACF"/>
<path d="M12.7064 18.9846C12.7284 18.9846 12.7503 18.9846 12.7503 18.9627C15.0549 18.3481 16.4376 15.8461 15.8011 13.366C15.1646 10.842 12.7065 9.28365 10.3361 9.92014C10.3141 9.92014 10.2703 9.9421 10.2483 9.9421C9.21677 10.2494 8.09743 9.94208 7.28536 9.15196C6.14407 8.05457 4.51989 7.59371 2.9616 8.09851C0.810711 8.80084 -0.418346 11.1931 0.13035 13.5415C0.32788 14.3536 0.70095 15.0559 1.1838 15.6266C1.88613 16.4167 2.17148 17.5142 1.97395 18.5677C1.84226 19.3139 1.86423 20.1039 2.10565 20.894C2.80798 23.2205 5.06863 24.6691 7.28536 24.1862C8.88755 23.857 10.0727 22.6279 10.5116 21.1135C10.8408 20.06 11.6529 19.248 12.7064 18.9846Z" fill="#6FCACF"/>
</svg>
