<svg width="173" height="165" viewBox="0 0 173 165" fill="none" xmlns="http://www.w3.org/2000/svg">
<path d="M125.491 136.538C125.491 136.867 125.491 137.196 125.491 137.526V164.851H166.27C166.358 164.653 166.446 164.456 166.534 164.214L167.785 160.242L169.255 155.04L170.177 151.243L171.582 144.198L171.977 141.301L172.328 138.799C172.328 138.469 172.613 136.275 172.613 135.945C172.613 119.814 162.825 107.325 149.524 107.325C144.191 107.325 139.253 109.432 135.28 113.01C135.236 113.032 135.192 113.076 135.17 113.098C129.31 118.409 125.491 126.925 125.491 136.538Z" fill="#F9AB97"/>
<path d="M112.761 164.851H153.453C153.891 153.833 154.396 140.708 154.396 140.708C154.396 140.401 154.418 140.115 154.418 139.808C154.594 125.652 146.144 113.954 135.28 113.01C135.236 113.01 135.192 113.01 135.17 112.988C134.819 112.966 134.468 112.944 134.095 112.944C124.92 112.834 117.041 120.406 114.188 131.029C113.573 133.29 113.2 135.682 113.091 138.162C113.091 138.535 113.069 138.886 113.069 139.259V140.159L112.761 164.851Z" fill="#A89BB7"/>
<path d="M74.2648 164.851H134.007C134.665 146.59 135.565 122.294 135.565 122.294C135.587 121.811 135.587 121.328 135.609 120.845C135.653 118.19 135.521 115.6 135.214 113.076C135.214 113.032 135.214 112.988 135.214 112.966C132.887 92.8617 120.706 77.4982 105.804 77.3007C102.665 77.2568 99.6365 77.8934 96.7613 79.1224C93.4691 80.5271 90.4184 82.678 87.6749 85.4653C80.4322 92.8618 75.5158 104.604 74.9232 118.036C74.9013 118.694 74.8794 119.353 74.8574 120.033C74.8574 120.516 74.8574 120.999 74.8574 121.482L74.2648 164.851Z" fill="#F9AB97"/>
<path d="M74.2652 164.851H113.201C113.552 153.35 113.947 139.567 114.21 131.007C114.364 126.069 114.452 122.864 114.452 122.864C114.474 122.403 114.474 121.921 114.474 121.438C114.781 99.6875 107.011 81.6684 96.7398 79.1005C93.4476 80.5051 90.3968 82.656 87.6533 85.4434C80.4106 92.8398 75.4943 104.582 74.9017 118.014C74.8798 118.672 74.8578 119.331 74.8358 120.011C74.8358 120.494 74.8358 120.977 74.8358 121.46L74.2652 164.851Z" fill="#A89BB7"/>
<path d="M86.1176 164.851C86.776 141.784 87.6978 90.4914 87.6978 90.4914C87.7198 90.0086 87.7198 89.5257 87.7418 89.0428C87.7637 87.8577 87.7417 86.6506 87.6759 85.4874C86.7102 63.3201 73.8707 45.7179 57.9366 45.4984C49.2452 45.3887 41.344 50.4586 35.6815 58.6891C35.484 58.9963 35.2864 59.2817 35.0889 59.5889C30.4798 66.7 27.5169 75.9839 27.0341 86.2336C27.0121 86.892 26.9901 87.5505 26.9682 88.2308V89.6794L26.3757 164.851H86.1176Z" fill="#F9AB97"/>
<path d="M24.6859 164.851H65.3553C65.8601 142.749 66.5624 88.5601 66.5624 88.5601C66.5624 88.1431 66.5842 87.726 66.5842 87.309C66.8696 66.5683 57.8271 55.792 46.4142 55.6383C42.5295 55.5944 38.8861 56.7357 35.7476 59.0841C35.5281 59.2377 35.3306 59.4134 35.1111 59.5889C29.5802 64.1321 25.7394 72.626 25.3005 85.1801C25.2785 85.6849 25.2785 86.2116 25.2565 86.7383V87.9894L24.6859 164.851Z" fill="#A89BB7"/>
<path d="M-20.0001 49.2295V89.7452C-17.0811 114.788 -14.1619 139.83 -11.2648 164.851H28.6582C29.2728 160.527 29.185 161.12 30.3263 153.416L31.5772 142.683L33.0478 128.681L33.9915 118.475L35.3963 99.49L35.7913 91.6985L36.1425 84.9386C36.1425 84.0607 36.4277 78.1568 36.4277 77.2569C36.4277 71.6602 36.1864 65.4489 35.7255 59.106C35.7255 58.9743 35.7035 58.8427 35.6815 58.711C33.5965 32.1541 26.9683 2.70012 13.3387 0.176121C9.36614 -0.570105 6.00803 1.18578 2.60612 2.98551C-0.68605 4.69744 -8.08247 9.50401 -15.2814 31.0787C-15.3252 31.2104 -15.3691 31.342 -15.413 31.4737C-16.5542 34.9195 -17.7394 39.0238 -18.8368 43.6987C-18.8588 43.7865 -18.8808 43.8523 -18.9027 43.962C-19.2539 45.6081 -19.649 47.3639 -20.0001 49.2295Z" fill="#F9AB97"/>
<path d="M-19.9995 49.5586V164.829H17.1363C17.5972 133.838 18.2337 90.0524 18.2337 90.0524C18.2337 89.2622 18.2556 88.4502 18.2556 87.6381C18.4532 48.0662 9.36676 15.6712 -2.0461 15.2542C-7.0941 15.0786 -11.7471 21.1581 -15.3685 31.4297C-16.6414 35.0291 -17.8047 39.1334 -18.7924 43.6547C-18.8143 43.7425 -18.8362 43.8084 -18.8582 43.9181C-19.2752 45.7398 -19.6483 47.6272 -19.9995 49.5586Z" fill="#A89BB7"/>
</svg>
