<svg width="114" height="180" viewBox="0 0 114 180" fill="none" xmlns="http://www.w3.org/2000/svg">
<path d="M90.318 78.7219C90.4358 75.6951 89.8861 72.6728 88.7329 69.8939C89.3543 69.3624 89.9469 68.8041 90.5102 68.2004C98.2886 59.8642 97.8258 46.7599 89.4992 38.9904C86.4522 36.1473 82.5864 34.2968 78.4756 33.6695C77.5745 29.6023 75.4522 25.8833 72.4052 23.0402C64.069 15.2618 50.9647 15.7246 43.1952 24.0512C42.7392 24.5399 42.2935 25.056 41.8855 25.5894C38.9517 24.4113 35.7638 23.9283 32.5735 24.1778C27.4044 24.5885 22.6163 26.8962 19.0848 30.681C15.7052 34.3029 13.7367 39.0443 13.5463 43.993C13.3885 48.273 14.5444 52.4705 16.8462 56.0163L-50.075 127.736L-51.5591 129.327L-49.9685 130.811L-10.3381 167.79L-8.74755 169.274L-7.26342 167.683L59.6577 95.9634C63.3542 98.0145 67.6311 98.8863 71.8804 98.424C76.8138 97.9009 81.3981 95.6004 84.7777 91.9784C88.1579 88.375 90.1181 83.6617 90.318 78.7219Z" fill="#09384E"/>
<path d="M81.1187 88.563C75.2268 94.8774 65.2987 95.221 58.9843 89.3291L30.3294 120.039C27.2806 123.306 22.1684 123.483 18.901 120.434C15.6336 117.386 15.4567 112.273 18.5054 109.006C15.4567 112.273 10.3444 112.45 7.07704 109.402C3.80964 106.353 3.63271 101.241 6.68149 97.9732C3.63271 101.241 -1.47954 101.418 -4.74694 98.3688C-8.01434 95.32 -8.19126 90.2078 -5.14248 86.9404L23.5125 56.2307C17.198 50.3387 16.8544 40.4107 22.7463 34.0963C28.2985 28.1459 37.4282 27.5054 43.7444 32.3773C44.4435 30.6099 45.4799 28.9421 46.8479 27.4761C52.7398 21.1616 62.6679 20.818 68.9823 26.7099C72.3742 29.8749 74.045 34.2122 73.944 38.5274C78.2418 38.1283 82.6843 39.4951 86.0762 42.6601C92.3907 48.5521 92.7343 58.4801 86.8424 64.7945C85.4387 66.2989 83.8005 67.459 82.0397 68.2895C86.6775 74.2302 86.4295 82.8714 81.1187 88.563Z" fill="white"/>
<path d="M64.1516 83.7912C67.4167 86.8378 72.5334 86.6607 75.58 83.3956C78.6266 80.1305 78.4495 75.0138 75.1844 71.9672C71.9193 68.9206 66.8027 69.0977 63.756 72.3628C60.7094 75.6279 60.8865 80.7446 64.1516 83.7912Z" fill="#F9AB97"/>
<path d="M28.6682 50.6836C31.9333 53.7302 37.05 53.5531 40.0966 50.288C43.1432 47.0229 42.9662 41.9062 39.7011 38.8596C36.436 35.8129 31.3193 35.99 28.2726 39.2551C25.226 42.5202 25.4031 47.6369 28.6682 50.6836Z" fill="#F9AB97"/>
<path d="M52.7795 44.0536C56.0446 47.1002 61.1613 46.9231 64.2079 43.658C67.2546 40.3929 67.0775 35.2762 63.8124 32.2296C60.5473 29.1829 55.4306 29.36 52.384 32.6251C49.3373 35.8902 49.5144 41.0069 52.7795 44.0536Z" fill="#F9AB97"/>
<path d="M69.8733 60.004C73.1384 63.0506 78.255 62.8735 81.3017 59.6084C84.3483 56.3433 84.1712 51.2266 80.9061 48.18C77.641 45.1334 72.5243 45.3105 69.4777 48.5756C66.4311 51.8407 66.6082 56.9573 69.8733 60.004Z" fill="#F9AB97"/>
<path d="M59.2322 66.5105C59.259 66.4817 59.2768 66.4626 59.3037 66.4338C62.6309 62.9064 62.4922 57.2922 58.9916 53.9363C55.4144 50.5088 49.7267 50.6686 46.356 54.2809C46.3113 54.3288 46.2667 54.3767 46.2309 54.415C44.7755 56.0324 42.5752 56.7577 40.4291 56.3683C37.4251 55.8418 34.2151 56.8616 32.0687 59.4116C29.112 62.9262 29.3586 68.175 32.6235 71.4186C33.7375 72.5298 35.0706 73.2718 36.4656 73.6593C38.4227 74.2129 39.9941 75.6791 40.6816 77.5933C41.1742 78.9671 42.0066 80.2457 43.1826 81.2713C46.6257 84.3047 51.8975 84.1872 55.1992 80.9944C57.5858 78.6865 58.3902 75.4041 57.6572 72.4437C57.1204 70.3297 57.7103 68.0838 59.2322 66.5105Z" fill="#F9AB97"/>
<path d="M47.2858 32.4215C46.0093 29.8323 44.0463 28.3054 42.627 27.483C42.2106 27.2378 41.7264 27.1804 41.2576 27.2986C40.7888 27.4168 40.4005 27.7177 40.1642 28.1246C39.919 28.5411 39.8616 29.0252 39.9798 29.494C40.098 29.9628 40.399 30.351 40.8058 30.5873C41.7902 31.1652 43.1622 32.2304 44.0586 34.0168C44.5071 34.9192 44.7824 35.9112 44.8643 36.9376C44.8982 37.3815 45.0983 37.801 45.424 38.105C45.7881 38.4448 46.2857 38.6223 46.7941 38.5768C47.2751 38.5416 47.703 38.3135 48.0242 37.9501C48.3359 37.5777 48.4872 37.1274 48.4424 36.6375C48.3362 35.1761 47.9528 33.7429 47.2858 32.4215Z" fill="#09384E"/>
<path d="M80.5004 35.6487C80.1727 35.2892 79.73 35.0912 79.2561 35.0613C77.7238 34.9938 76.1973 35.0929 74.6944 35.3397C73.7543 35.502 72.816 35.72 71.9078 36.0018C70.9536 36.2944 70.423 37.3048 70.7151 38.2405C70.809 38.5433 70.9757 38.8065 71.2056 39.021C71.6751 39.4591 72.3484 39.6212 72.9628 39.4238C73.7241 39.1842 74.5059 38.9995 75.2896 38.8704C76.5433 38.6601 77.8201 38.5788 79.102 38.6457C80.0958 38.6948 80.9311 37.9148 80.9712 36.9306C80.9923 36.4662 80.8281 36.0083 80.5004 35.6487Z" fill="#09384E"/>
<path d="M86.8182 69.5243C86.8852 69.0491 86.7669 68.5803 86.466 68.192C85.7275 67.2161 84.4193 65.852 82.3773 64.9861C80.4195 64.1452 78.61 64.1059 77.4361 64.2114C76.9647 64.2556 76.5278 64.4933 76.2251 64.8561C75.9135 65.2285 75.7814 65.6966 75.8255 66.168C75.8684 66.6023 76.0677 67.0034 76.3934 67.3074C76.7671 67.6561 77.2833 67.8329 77.7917 67.7875C78.5403 67.7152 79.7187 67.7394 80.9802 68.2891C82.2979 68.8555 83.1348 69.7259 83.6203 70.3582C83.9116 70.7375 84.328 70.9828 84.8032 71.0498C85.2784 71.1168 85.7472 70.9986 86.1355 70.6977C86.4969 70.4256 86.7512 69.9995 86.8182 69.5243Z" fill="#09384E"/>
<path d="M30.3369 120.029L-8.99326 162.18L-44.4747 129.072L-5.14453 86.9218C-8.19331 90.1892 -8.01638 95.3014 -4.74899 98.3502C-1.48159 101.399 3.63064 101.222 6.67942 97.9546C3.63064 101.222 3.80757 106.334 7.07496 109.383C10.3424 112.432 15.4546 112.255 18.5034 108.987C15.4546 112.255 15.6315 117.367 18.8989 120.416C22.1663 123.465 27.2881 123.297 30.3369 120.029Z" fill="#F87B54"/>
</svg>
