<svg width="137" height="158" viewBox="0 0 137 158" fill="none" xmlns="http://www.w3.org/2000/svg">
<path d="M65.7503 19.2502C62.8485 19.8304 60.1037 21.0435 57.728 22.7742C57.0812 22.3055 56.4154 21.8703 55.7133 21.4733C46.0173 15.9916 33.677 19.4274 28.2016 29.1122C26.1979 32.6562 25.3242 36.7509 25.6683 40.7986C22.0115 42.5844 18.9645 45.4504 16.9609 48.9944C11.4791 58.6904 14.915 71.0307 24.5998 76.5061C25.1681 76.8275 25.7602 77.1328 26.3601 77.3984C25.912 80.4542 26.1821 83.5924 27.1486 86.5654C28.7205 91.3809 32.007 95.4009 36.4092 97.8897C40.6219 100.271 45.5752 101.057 50.3189 100.106C54.42 99.2776 58.1424 97.22 60.9838 94.2232L144.402 141.385L146.252 142.431L147.298 140.581L173.359 94.486L174.404 92.636L172.554 91.5901L89.1359 44.4284C90.2388 40.4486 90.089 36.1871 88.6783 32.257C87.0535 27.6911 83.8204 23.863 79.6077 21.4813C75.4124 19.0947 70.4877 18.3106 65.7503 19.2502Z" fill="#09384E"/>
<path d="M77.2012 25.738C84.5456 29.8902 87.1419 39.2411 82.9897 46.5855L118.709 66.7796C122.509 68.9282 123.846 73.7432 121.697 77.5436C119.549 81.3439 114.734 82.6809 110.933 80.5323C114.734 82.6809 116.071 87.4958 113.922 91.2962C111.774 95.0966 106.959 96.4335 103.158 94.2849C106.959 96.4335 108.296 101.248 106.147 105.049C103.998 108.849 99.1833 110.186 95.383 108.038L59.664 87.8434C55.5118 95.1878 46.1609 97.7841 38.8165 93.6319C31.8956 89.7191 29.1998 81.1944 32.3829 74.0815C30.5444 73.8216 28.7234 73.2186 27.0182 72.2545C19.6738 68.1023 17.0775 58.7515 21.2297 51.4071C23.4602 47.4618 27.1977 44.8833 31.3192 43.9926C29.9575 40.0019 30.2399 35.47 32.4704 31.5248C36.6227 24.1804 45.9735 21.5841 53.3179 25.7363C55.0676 26.7255 56.544 28.0162 57.7354 29.4986C62.3173 23.7355 70.5812 21.9953 77.2012 25.738Z" fill="white"/>
<path d="M76.5543 42.9333C78.7014 39.1356 77.3633 34.3164 73.5656 32.1694C69.7679 30.0223 64.9487 31.3604 62.8017 35.1581C60.6546 38.9557 61.9927 43.7749 65.7904 45.922C69.5881 48.0691 74.4073 46.731 76.5543 42.9333Z" fill="#F9AB97"/>
<path d="M53.2223 84.2026C55.3694 80.4049 54.0313 75.5857 50.2336 73.4386C46.4359 71.2916 41.6167 72.6297 39.4696 76.4273C37.3226 80.225 38.6607 85.0442 42.4584 87.1913C46.2561 89.3383 51.0752 88.0003 53.2223 84.2026Z" fill="#F9AB97"/>
<path d="M41.4059 62.8298C43.553 59.0322 42.2149 54.213 38.4172 52.0659C34.6195 49.9188 29.8003 51.2569 27.6532 55.0546C25.5062 58.8523 26.8443 63.6715 30.642 65.8185C34.4396 67.9656 39.2588 66.6275 41.4059 62.8298Z" fill="#F9AB97"/>
<path d="M52.653 42.9367C54.8 39.139 53.4619 34.3198 49.6643 32.1727C45.8666 30.0257 41.0474 31.3637 38.9003 35.1614C36.7532 38.9591 38.0913 43.7783 41.889 45.9253C45.6867 48.0724 50.5059 46.7343 52.653 42.9367Z" fill="#F9AB97"/>
<path d="M61.2595 51.5671C61.226 51.5482 61.2038 51.5356 61.1703 51.5167C57.0594 49.1631 51.7589 50.5785 49.3718 54.6706C46.9344 58.8518 48.3866 64.2173 52.5882 66.5927C52.6439 66.6242 52.6996 66.6557 52.7442 66.6809C54.6131 67.6934 55.805 69.6173 55.9259 71.7447C56.1127 74.7181 57.8152 77.5337 60.7279 78.9893C64.7419 80.9939 69.6708 79.5596 72.005 75.7171C72.8056 74.4049 73.2056 72.9692 73.2547 71.5556C73.3329 69.5703 74.3662 67.7426 76.027 66.6519C77.2192 65.8699 78.2432 64.787 78.9485 63.4356C81.0423 59.4719 79.7253 54.4917 75.9381 52.0858C73.2004 50.3468 69.8989 50.3334 67.2548 51.7064C65.376 52.6884 63.1017 52.6528 61.2595 51.5671Z" fill="#F9AB97"/>
<path d="M31.6215 70.6955C29.4542 72.4999 28.4529 74.7134 27.9962 76.2495C27.8585 76.7011 27.9148 77.1741 28.1342 77.5923C28.3537 78.0105 28.7282 78.3105 29.1687 78.4419C29.6203 78.5795 30.0932 78.5234 30.5115 78.3039C30.9297 78.0844 31.2297 77.7099 31.361 77.2694C31.6848 76.2024 32.3828 74.6557 33.8745 73.3959C34.6291 72.7636 35.5083 72.2753 36.4644 71.9628C36.8782 71.8291 37.231 71.5432 37.4452 71.1643C37.6846 70.7408 37.7395 70.2276 37.5801 69.7552C37.4367 69.3064 37.1222 68.9521 36.7036 68.7301C36.2786 68.5193 35.8163 68.4785 35.3613 68.6331C33.9913 69.0792 32.7177 69.7711 31.6215 70.6955Z" fill="#09384E"/>
<path d="M27.0929 38.4124C26.8263 38.8058 26.7396 39.2715 26.8195 39.7285C27.1057 41.1992 27.5489 42.6263 28.1269 43.9973C28.496 44.8531 28.9176 45.6944 29.3928 46.4926C29.889 47.3319 30.97 47.6048 31.7919 47.1136C32.0579 46.9551 32.2698 46.7367 32.421 46.4692C32.7298 45.9231 32.7298 45.2466 32.4018 44.7082C32.0001 44.0399 31.646 43.3396 31.3441 42.6248C30.8577 41.4821 30.4887 40.2881 30.2591 39.0553C30.0785 38.1001 29.1467 37.4851 28.2027 37.672C27.7506 37.7694 27.3532 38.03 27.0929 38.4124Z" fill="#09384E"/>
<path d="M57.8158 24.677C57.3492 24.722 56.931 24.9415 56.631 25.3161C55.873 26.2406 54.8765 27.795 54.521 29.9325C54.17 31.9842 54.5464 33.7118 54.915 34.8026C55.0647 35.2402 55.3903 35.6008 55.8041 35.8053C56.2291 36.0162 56.7039 36.0346 57.1415 35.8849C57.5442 35.7449 57.8796 35.4639 58.0939 35.085C58.3396 34.6503 58.3895 34.1197 58.2301 33.6472C57.9903 32.9528 57.7438 31.828 57.9775 30.5042C58.2142 29.1231 58.8495 28.1293 59.339 27.5236C59.6327 27.1602 59.7704 26.7086 59.7254 26.242C59.6804 25.7753 59.461 25.3571 59.0865 25.0571C58.7453 24.776 58.2825 24.632 57.8158 24.677Z" fill="#09384E"/>
</svg>
