<svg width="76" height="299" viewBox="0 0 76 299" fill="none" xmlns="http://www.w3.org/2000/svg">
<path d="M37.6054 298.101C57.4682 298.101 73.5559 282.079 73.5559 262.304H1.63281C1.65476 282.057 17.7426 298.101 37.6054 298.101Z" fill="#5BA4A8"/>
<path d="M39.5141 280.082C27.4648 280.126 15.4156 280.148 3.36623 280.192C-2.20851 267.067 -0.606451 254.557 6.30711 242.573C10.4991 235.308 16.6225 230.327 23.8214 226.727C24.436 226.42 25.0286 226.047 25.6212 225.695C28.0574 225.037 30.5156 224.357 32.9519 223.698C35.8929 223.764 38.812 222.842 41.7749 223.545C39.9752 223.61 39.4483 224.466 39.4483 226.464C39.5361 244.329 39.5141 262.217 39.5141 280.082Z" fill="#6FCACF"/>
<path d="M32.9298 223.698C31.986 218.716 33.2591 216.433 37.7803 214.985C38.0876 215.007 38.3949 215.029 38.7022 215.051C38.9436 215.138 39.185 215.226 39.4264 215.292C42.9161 217.004 43.6623 218.716 43.0039 223.457C42.5869 223.501 42.1919 223.522 41.7749 223.566C38.8119 222.842 35.8708 223.764 32.9298 223.698Z" fill="#040D27"/>
<path d="M39.1895 215C38.2964 214.911 37.4032 214.822 36.5102 214.733C36.3188 214.021 36.1914 213.31 36 212.687C36.1276 175.847 36.2552 139.006 36.3189 102.166C36.3827 70.5764 36.2552 39.0759 36.3189 7.48602C36.3189 4.81645 35.2983 0.18884 37.9137 0.010869C40.9756 -0.256088 39.7632 4.45998 39.7632 6.95158C39.827 74.0468 39.827 141.143 39.7632 208.149C39.8908 210.462 39.4446 212.775 39.1895 215Z" fill="white"/>
<path d="M41.7531 223.544C42.1701 223.5 42.5653 223.478 42.9823 223.435C51.9371 225.432 59.6626 229.821 65.5447 237.327C74.8286 249.157 77.6598 262.765 75.048 277.799C74.7188 279.643 73.9946 280.279 72.129 280.257C61.2648 280.126 50.3787 280.148 39.4926 280.104C39.4926 262.238 39.5145 244.351 39.4268 226.485C39.4268 224.488 39.9754 223.61 41.7531 223.544ZM65.4568 268.537C68.6831 262.194 68.9905 255.786 65.8739 249.311C68.1784 255.786 67.8272 262.194 65.4568 268.537Z" fill="#6FCACF"/>
<path d="M67.7393 290.639C67.8929 290.485 68.0464 290.31 68.2001 290.156L68.2222 290.178C68.0685 290.332 67.9148 290.507 67.7611 290.661L67.7393 290.639Z" fill="#FEDC98"/>
<path d="M65.457 268.537C67.8274 262.195 68.1786 255.786 65.8741 249.311C68.9907 255.786 68.6834 262.195 65.457 268.537Z" fill="#FCDB97"/>
</svg>
