<svg width="76" height="202" viewBox="0 0 76 202" fill="none" xmlns="http://www.w3.org/2000/svg">
<path d="M37.6054 201.101C57.4682 201.101 73.5559 185.079 73.5559 165.304H1.63281C1.65476 185.057 17.7426 201.101 37.6054 201.101Z" fill="#5BA4A8"/>
<path d="M39.5141 183.082C27.4648 183.126 15.4156 183.148 3.36623 183.192C-2.20851 170.067 -0.606451 157.557 6.30711 145.573C10.4991 138.308 16.6225 133.327 23.8214 129.727C24.436 129.42 25.0286 129.047 25.6212 128.695C28.0574 128.037 30.5156 127.357 32.9519 126.698C35.8929 126.764 38.812 125.842 41.7749 126.545C39.9752 126.61 39.4483 127.466 39.4483 129.464C39.5361 147.329 39.5141 165.217 39.5141 183.082Z" fill="#6FCACF"/>
<path d="M32.9298 126.698C31.986 121.716 33.2591 119.433 37.7803 117.985C38.0876 118.007 38.3949 118.029 38.7022 118.051C38.9436 118.138 39.185 118.226 39.4264 118.292C42.9161 120.004 43.6623 121.716 43.0039 126.457C42.5869 126.501 42.1919 126.522 41.7749 126.566C38.8119 125.842 35.8708 126.764 32.9298 126.698Z" fill="#040D27"/>
<path d="M39.1895 118C38.2964 117.951 37.4032 117.902 36.5102 117.854C36.3188 117.463 36.1914 117.072 36 116.73C36.1276 96.5112 36.2552 76.2919 36.3189 56.0727C36.3827 38.7349 36.2552 21.4463 36.3189 4.1086C36.3189 2.64344 35.2983 0.103643 37.9137 0.00596534C40.9756 -0.140551 39.7632 2.4478 39.7632 3.81529C39.827 40.6396 39.827 77.4643 39.7632 114.24C39.8908 115.51 39.4446 116.779 39.1895 118Z" fill="white"/>
<path d="M41.7531 126.544C42.1701 126.5 42.5653 126.478 42.9823 126.435C51.9371 128.432 59.6626 132.821 65.5447 140.327C74.8286 152.157 77.6598 165.765 75.048 180.799C74.7188 182.643 73.9946 183.279 72.129 183.257C61.2648 183.126 50.3787 183.148 39.4926 183.104C39.4926 165.238 39.5145 147.351 39.4268 129.485C39.4268 127.488 39.9754 126.61 41.7531 126.544ZM65.4568 171.537C68.6831 165.194 68.9905 158.786 65.8739 152.311C68.1784 158.786 67.8272 165.194 65.4568 171.537Z" fill="#6FCACF"/>
<path d="M67.7393 193.639C67.8929 193.485 68.0464 193.31 68.2001 193.156L68.2222 193.178C68.0685 193.332 67.9148 193.507 67.7611 193.661L67.7393 193.639Z" fill="#FEDC98"/>
<path d="M65.457 171.537C67.8274 165.195 68.1786 158.786 65.8741 152.311C68.9907 158.786 68.6834 165.195 65.457 171.537Z" fill="#FCDB97"/>
</svg>
